<svg width="96" height="95" viewBox="0 0 96 95" fill="none" xmlns="http://www.w3.org/2000/svg">
<g clip-path="url(#clip0_66_4880)" filter="url(#filter0_d_66_4880)">
<path d="M23.553 0H72.447C82.9699 0 91.5 8.53008 91.5 19.053V67.947C91.5 78.4699 82.9699 87 72.447 87H23.553C13.0301 87 4.5 78.4699 4.5 67.947V19.053C4.5 8.53008 13.0301 0 23.553 0Z" fill="url(#paint0_linear_66_4880)"/>
<path d="M32.3798 63.1463L32.388 63.149L29.4134 68.3011C28.3276 70.1818 25.9228 70.8261 24.0421 69.7403C22.1618 68.6545 21.5171 66.2498 22.6029 64.3691L24.7942 60.5737L25.0046 60.2094C25.3801 59.6697 26.3068 58.7379 28.1607 58.9132C28.1607 58.9132 32.5233 59.3866 32.839 61.6541C32.839 61.6541 32.8818 62.4 32.3798 63.1463ZM74.5691 49.9876H65.2934C64.6616 49.9451 64.386 49.7194 64.2773 49.5882L64.2705 49.5764L54.3412 32.3782L54.3283 32.3867L53.7329 31.533C52.7569 30.0404 51.2072 33.8576 51.2072 33.8576C49.3568 38.111 51.4699 42.9467 52.2063 44.4084L65.9979 68.296C67.0833 70.1763 69.4881 70.821 71.3691 69.7349C73.2495 68.6491 73.8942 66.2443 72.808 64.3636L69.3596 58.3905C69.2927 58.2458 69.1764 57.8529 69.8837 57.8512H74.5691C76.7407 57.8512 78.5011 56.0908 78.5011 53.9192C78.5011 51.7476 76.7407 49.9872 74.5691 49.9872V49.9876ZM56.5526 55.3326C56.5526 55.3326 57.0478 57.8512 55.1321 57.8512H20.8421C18.6705 57.8512 16.9102 56.0908 16.9102 53.9192C16.9102 51.7476 18.6705 49.9872 20.8421 49.9872H29.6577C31.081 49.905 31.4181 49.0832 31.4181 49.0832L31.4262 49.0873L42.9334 29.1562L42.93 29.1555C43.1396 28.7704 42.965 28.4065 42.9347 28.349L39.1342 21.7666C38.0484 19.8862 38.6928 17.4812 40.5735 16.3957C42.4542 15.3099 44.8589 15.9539 45.9447 17.8346L47.7071 20.8874L49.4665 17.84C50.5523 15.9597 52.9571 15.315 54.8377 16.4011C56.7184 17.4869 57.3628 19.8913 56.277 21.772L40.2642 49.5067C40.1942 49.6756 40.1728 49.9407 40.6938 49.9872H50.2652L50.2672 50.0807C50.2672 50.0807 55.7992 50.1667 56.5526 55.3326Z" fill="white"/>
</g>
<defs>
<filter id="filter0_d_66_4880" x="0.5" y="0" width="95" height="95" filterUnits="userSpaceOnUse" color-interpolation-filters="sRGB">
<feFlood flood-opacity="0" result="BackgroundImageFix"/>
<feColorMatrix in="SourceAlpha" type="matrix" values="0 0 0 0 0 0 0 0 0 0 0 0 0 0 0 0 0 0 127 0" result="hardAlpha"/>
<feOffset dy="4"/>
<feGaussianBlur stdDeviation="2"/>
<feComposite in2="hardAlpha" operator="out"/>
<feColorMatrix type="matrix" values="0 0 0 0 0 0 0 0 0 0 0 0 0 0 0 0 0 0 0.25 0"/>
<feBlend mode="normal" in2="BackgroundImageFix" result="effect1_dropShadow_66_4880"/>
<feBlend mode="normal" in="SourceGraphic" in2="effect1_dropShadow_66_4880" result="shape"/>
</filter>
<linearGradient id="paint0_linear_66_4880" x1="48" y1="0" x2="48" y2="87" gradientUnits="userSpaceOnUse">
<stop stop-color="#17C9FB"/>
<stop offset="1" stop-color="#1A74E8"/>
</linearGradient>
<clipPath id="clip0_66_4880">
<rect width="87" height="87" fill="white" transform="translate(4.5)"/>
</clipPath>
</defs>
</svg>
